<svg width="42" height="41" viewBox="0 0 42 41" fill="none" xmlns="http://www.w3.org/2000/svg">
<g clip-path="url(#clip0_45_5632)">
<path opacity="0.2" d="M30.965 20.2954H15.8679C14.2024 20.2954 12.8523 21.6455 12.8523 23.311V37.4844C12.8523 39.1498 14.2024 40.5 15.8679 40.5H30.965C32.6305 40.5 33.9806 39.1498 33.9806 37.4844V23.311C33.9806 21.6455 32.6305 20.2954 30.965 20.2954Z" fill="#1AC977"/>
<path d="M31.7591 38.3489H13.5399C12.339 38.3473 11.1878 37.8695 10.3388 37.0201C9.48988 36.1708 9.01248 35.0194 9.01141 33.8185V15.6002C9.01354 14.3999 9.4914 13.2493 10.3402 12.4005C11.189 11.5517 12.3395 11.0739 13.5399 11.0718H15.7454C15.8244 11.0685 15.9033 11.0812 15.9773 11.1092C16.0513 11.1372 16.119 11.1799 16.1761 11.2347C16.2332 11.2895 16.2785 11.3553 16.3096 11.4281C16.3406 11.5009 16.3567 11.5792 16.3567 11.6583C16.3567 11.7375 16.3406 11.8158 16.3096 11.8886C16.2785 11.9614 16.2332 12.0271 16.1761 12.0819C16.119 12.1367 16.0513 12.1794 15.9773 12.2074C15.9033 12.2354 15.8244 12.2481 15.7454 12.2449H13.5399C12.6505 12.2467 11.7982 12.6008 11.1693 13.2297C10.5405 13.8585 10.1863 14.7109 10.1845 15.6002V33.8175C10.185 34.7071 10.5385 35.5601 11.1671 36.1895C11.7957 36.8189 12.6483 37.1733 13.5379 37.1749H31.7582C32.6476 37.1733 33.5002 36.8192 34.1291 36.1903C34.758 35.5614 35.1119 34.7089 35.1135 33.8195V15.6022C35.1114 14.7128 34.7571 13.8604 34.1281 13.2316C33.4991 12.6028 32.6466 12.2487 31.7572 12.2469H29.4623C29.311 12.2406 29.1678 12.1761 29.0629 12.0667C28.9581 11.9574 28.8995 11.8118 28.8995 11.6603C28.8995 11.5089 28.9581 11.3632 29.0629 11.2539C29.1678 11.1446 29.311 11.0801 29.4623 11.0738H31.7582C32.9575 11.0764 34.1071 11.5537 34.9556 12.4013C35.8041 13.2489 36.2826 14.3979 36.2866 15.5972V33.8155C36.2858 35.0166 35.8087 36.1683 34.96 37.0181C34.1113 37.8679 32.9602 38.3465 31.7591 38.3489Z" fill="#444B54"/>
<path d="M35.6151 18.7283H12.9267C12.7754 18.722 12.6322 18.6574 12.5273 18.5481C12.4225 18.4388 12.3639 18.2932 12.3639 18.1417C12.3639 17.9902 12.4225 17.8446 12.5273 17.7353C12.6322 17.626 12.7754 17.5615 12.9267 17.5552H35.6151C35.6941 17.5519 35.7731 17.5646 35.8471 17.5926C35.9211 17.6206 35.9887 17.6633 36.0458 17.7181C36.1029 17.7729 36.1484 17.8387 36.1794 17.9115C36.2104 17.9843 36.2264 18.0626 36.2264 18.1417C36.2264 18.2209 36.2104 18.2992 36.1794 18.3719C36.1484 18.4447 36.1029 18.5105 36.0458 18.5653C35.9887 18.6201 35.9211 18.6628 35.8471 18.6908C35.7731 18.7188 35.6941 18.7315 35.6151 18.7283Z" fill="#444B54"/>
<path d="M17.0771 15.3077C16.5748 15.3071 16.0932 15.1073 15.7379 14.7521C15.3827 14.3968 15.1829 13.9152 15.1823 13.4128C15.1791 13.3338 15.1919 13.2548 15.2199 13.1808C15.2479 13.1068 15.2905 13.0392 15.3453 12.9821C15.4001 12.925 15.4659 12.8796 15.5387 12.8485C15.6115 12.8175 15.6897 12.8015 15.7689 12.8015C15.848 12.8015 15.9264 12.8175 15.9992 12.8485C16.072 12.8796 16.1378 12.925 16.1926 12.9821C16.2473 13.0392 16.29 13.1068 16.318 13.1808C16.346 13.2548 16.3588 13.3338 16.3555 13.4128C16.3555 13.6044 16.4315 13.7881 16.5669 13.9235C16.7024 14.059 16.8861 14.1351 17.0776 14.1351C17.2692 14.1351 17.4529 14.059 17.5883 13.9235C17.7238 13.7881 17.7999 13.6044 17.7999 13.4128V10.2143C17.7999 10.0227 17.7238 9.83902 17.5883 9.70358C17.4529 9.56813 17.2692 9.49203 17.0776 9.49203C16.8861 9.49203 16.7024 9.56813 16.5669 9.70358C16.4315 9.83902 16.3555 10.0227 16.3555 10.2143V11.5985C16.3588 11.6775 16.346 11.7564 16.318 11.8304C16.29 11.9044 16.2473 11.972 16.1926 12.0291C16.1378 12.0863 16.072 12.1317 15.9992 12.1627C15.9264 12.1938 15.848 12.2098 15.7689 12.2098C15.6897 12.2098 15.6115 12.1938 15.5387 12.1627C15.4659 12.1317 15.4001 12.0863 15.3453 12.0291C15.2905 11.972 15.2479 11.9044 15.2199 11.8304C15.1919 11.7564 15.1791 11.6775 15.1823 11.5985V10.2143C15.1823 9.71161 15.382 9.22953 15.7374 8.87409C16.0929 8.51865 16.575 8.31897 17.0776 8.31897C17.5803 8.31897 18.0624 8.51865 18.4178 8.87409C18.7733 9.22953 18.9729 9.71161 18.9729 10.2143V13.4128C18.9724 13.9154 18.7725 14.3972 18.4171 14.7524C18.0616 15.1077 17.5797 15.3074 17.0771 15.3077Z" fill="#444B54"/>
<path d="M28.0369 15.3076C27.5346 15.3071 27.053 15.1073 26.6977 14.752C26.3425 14.3968 26.1426 13.9152 26.1421 13.4128C26.1388 13.3337 26.1515 13.2548 26.1795 13.1808C26.2075 13.1068 26.2503 13.0392 26.3051 12.9821C26.3599 12.925 26.4255 12.8795 26.4983 12.8485C26.5711 12.8175 26.6495 12.8015 26.7286 12.8015C26.8078 12.8015 26.886 12.8175 26.9588 12.8485C27.0316 12.8795 27.0974 12.925 27.1522 12.9821C27.207 13.0392 27.2497 13.1068 27.2778 13.1808C27.3058 13.2548 27.3184 13.3337 27.3152 13.4128C27.3152 13.6044 27.3913 13.7881 27.5267 13.9235C27.6622 14.0589 27.8459 14.135 28.0374 14.135C28.229 14.135 28.4127 14.0589 28.5481 13.9235C28.6836 13.7881 28.7597 13.6044 28.7597 13.4128V10.2142C28.7597 10.0228 28.6836 9.83926 28.5482 9.70391C28.4129 9.56856 28.2293 9.49252 28.0379 9.49252C27.8465 9.49252 27.6629 9.56856 27.5276 9.70391C27.3922 9.83926 27.3162 10.0228 27.3162 10.2142V11.5984C27.3163 11.6755 27.3013 11.7518 27.2719 11.823C27.2425 11.8942 27.1993 11.9589 27.1449 12.0134C27.0904 12.068 27.0258 12.1112 26.9547 12.1407C26.8835 12.1703 26.8072 12.1854 26.7301 12.1854H20.4747C20.3957 12.1887 20.3168 12.176 20.2428 12.148C20.1688 12.12 20.1011 12.0773 20.044 12.0225C19.9869 11.9677 19.9416 11.902 19.9105 11.8292C19.8795 11.7564 19.8634 11.678 19.8634 11.5989C19.8634 11.5198 19.8795 11.4414 19.9105 11.3687C19.9416 11.2959 19.9869 11.2301 20.044 11.1753C20.1011 11.1205 20.1688 11.0779 20.2428 11.0499C20.3168 11.0219 20.3957 11.0091 20.4747 11.0124H26.139V10.2142C26.139 9.71171 26.3387 9.22977 26.694 8.87442C27.0494 8.51908 27.5313 8.31946 28.0339 8.31946C28.5364 8.31946 29.0183 8.51908 29.3737 8.87442C29.729 9.22977 29.9287 9.71171 29.9287 10.2142V13.4118C29.9284 13.9138 29.7291 14.3953 29.3745 14.7506C29.0199 15.106 28.5389 15.3063 28.0369 15.3076Z" fill="#444B54"/>
<path d="M4.00361 24.8228C3.87495 24.8229 3.74985 24.7805 3.64776 24.7022L0.502459 22.2977C0.385851 22.2008 0.31122 22.0626 0.294228 21.912C0.277236 21.7614 0.319191 21.6099 0.411289 21.4895C0.503386 21.3691 0.638527 21.289 0.788362 21.266C0.938198 21.2429 1.0911 21.2787 1.21513 21.3659L3.89502 23.4145L5.94456 20.7346C6.04144 20.618 6.17971 20.5434 6.33035 20.5264C6.48099 20.5094 6.63241 20.5514 6.75282 20.6435C6.87324 20.7356 6.95334 20.8707 6.97639 21.0205C6.99944 21.1704 6.96356 21.3233 6.87639 21.4473L4.47099 24.5926C4.41611 24.6644 4.34532 24.7226 4.26424 24.7625C4.18315 24.8024 4.094 24.8231 4.00361 24.8228Z" fill="#444B54"/>
<path d="M10.7002 6.40855C10.5761 6.40902 10.455 6.37007 10.3544 6.29729C10.2539 6.2245 10.1789 6.12163 10.1406 6.00356C10.1022 5.88549 10.1023 5.75831 10.1409 5.64032C10.1795 5.52234 10.2547 5.41963 10.3554 5.34706L11.2278 4.71381C13.7972 2.9677 16.7488 1.86521 19.8337 1.49939C22.9185 1.13357 26.0462 1.51515 28.9526 2.61193C29.0907 2.6722 29.2003 2.78324 29.2588 2.92206C29.3172 3.06089 29.3201 3.21688 29.2668 3.35776C29.2134 3.49864 29.108 3.61361 28.9723 3.67891C28.8365 3.74421 28.6809 3.75486 28.5375 3.70861C25.8101 2.67866 22.8751 2.31945 19.9798 2.66128C17.0845 3.00312 14.3139 4.03595 11.9014 5.67275L11.0439 6.29597C10.9441 6.36894 10.8238 6.40835 10.7002 6.40855Z" fill="#444B54"/>
<path d="M8.54806 7.78063C8.50957 7.78019 8.47119 7.77615 8.43346 7.76857C8.39562 7.76108 8.35861 7.74998 8.3229 7.73541C8.28794 7.72016 8.25434 7.70198 8.2224 7.68112C8.19006 7.66029 8.16008 7.63603 8.13295 7.60875C8.10589 7.58117 8.08133 7.55124 8.05957 7.5193C8.03848 7.4875 8.02024 7.45385 8.00521 7.41877C7.99008 7.38413 7.97839 7.34811 7.97012 7.31122C7.96366 7.27337 7.9606 7.23501 7.96104 7.19661C7.96073 7.11956 7.97564 7.04322 8.00497 6.97197C8.0343 6.90072 8.07739 6.83598 8.13185 6.78147C8.15897 6.75419 8.18908 6.72994 8.22142 6.70911C8.25281 6.68735 8.2865 6.66912 8.32192 6.65481C8.35761 6.6402 8.39463 6.6291 8.43247 6.62165C8.50732 6.60528 8.58476 6.60528 8.6596 6.62165C8.69745 6.6291 8.73446 6.6402 8.77016 6.65481C8.80562 6.66902 8.83944 6.68725 8.87078 6.70911C8.90308 6.72999 8.93306 6.75424 8.96023 6.78147C9.01469 6.83598 9.05778 6.90072 9.08711 6.97197C9.11644 7.04322 9.13135 7.11956 9.13104 7.19661C9.13153 7.23501 9.12859 7.27338 9.12208 7.31122C9.11403 7.34818 9.10221 7.38421 9.08686 7.41877C9.07236 7.45391 9.05454 7.48757 9.03361 7.5193C9.0121 7.55115 8.98786 7.58107 8.96121 7.60875C8.93404 7.63598 8.90406 7.66024 8.87176 7.68112C8.83986 7.70205 8.80626 7.72022 8.77126 7.73541C8.73555 7.74998 8.69842 7.76108 8.66058 7.76857C8.62351 7.77605 8.58588 7.78009 8.54806 7.78063Z" fill="#444B54"/>
<path d="M3.57629 20.1346H3.56623C3.41071 20.132 3.26261 20.0677 3.15443 19.956C3.04625 19.8442 2.98685 19.6941 2.98927 19.5385C3.04697 15.8544 4.19375 12.2697 6.28526 9.23624C6.3269 9.16829 6.38189 9.10952 6.44698 9.06353C6.51207 9.01755 6.58585 8.9853 6.6638 8.96874C6.74176 8.95219 6.82234 8.95167 6.9005 8.96724C6.97866 8.98281 7.05276 9.01414 7.11842 9.0593C7.18409 9.10446 7.23986 9.16253 7.28236 9.22995C7.32485 9.29737 7.35325 9.37275 7.36568 9.45146C7.3781 9.53018 7.3743 9.6106 7.35463 9.68783C7.33497 9.76506 7.29987 9.83747 7.25131 9.90066C5.29042 12.7439 4.21514 16.1042 4.16123 19.5576C4.1586 19.7112 4.09587 19.8577 3.98649 19.9656C3.87712 20.0734 3.72991 20.1341 3.57629 20.1346Z" fill="#444B54"/>
<path d="M9.72114 36.0721C9.59887 36.0722 9.47968 36.0338 9.38039 35.9625C8.89631 35.6158 8.43749 35.2352 8.00732 34.8236L7.97811 34.7935C6.3834 33.0309 5.14161 30.9786 4.32014 28.7482C4.28805 28.6747 4.27137 28.5955 4.27106 28.5154C4.27075 28.4352 4.2869 28.3559 4.31843 28.2822C4.34995 28.2085 4.3962 28.1421 4.45438 28.087C4.51256 28.0318 4.58145 27.9892 4.65672 27.9617C4.732 27.9342 4.81206 27.9224 4.89207 27.927C4.97208 27.9316 5.0503 27.9527 5.1219 27.9887C5.1935 28.0247 5.25699 28.075 5.30841 28.1365C5.35983 28.1979 5.39813 28.2693 5.42093 28.3461C6.18953 30.4299 7.3495 32.3474 8.83852 33.9953C9.22411 34.363 9.63492 34.7032 10.0679 35.0136C10.1693 35.0857 10.2451 35.1882 10.2844 35.3063C10.3236 35.4244 10.3241 35.5519 10.2861 35.6704C10.248 35.7888 10.1732 35.8921 10.0726 35.9652C9.97191 36.0383 9.85059 36.0775 9.72617 36.0771L9.72114 36.0721Z" fill="#444B54"/>
<path d="M32.3946 9.61915C32.2579 9.61893 32.1255 9.571 32.0203 9.48365C31.9152 9.3963 31.8439 9.275 31.8186 9.14066L31.1058 5.33296C31.0773 5.18009 31.1106 5.02214 31.1984 4.8938C31.2862 4.76546 31.4214 4.67721 31.5743 4.64842L35.3819 3.93572C35.5318 3.91407 35.6843 3.95119 35.8075 4.03931C35.9306 4.12743 36.0149 4.25975 36.0428 4.40859C36.0707 4.55744 36.0401 4.71129 35.9572 4.83803C35.8743 4.96477 35.7456 5.05458 35.598 5.08869L32.3663 5.69181L32.9694 8.92255C32.9852 9.00729 32.9822 9.09445 32.9605 9.17787C32.9388 9.26129 32.899 9.33891 32.8439 9.40521C32.7888 9.47152 32.7198 9.52485 32.6418 9.56148C32.5638 9.59811 32.4787 9.61711 32.3925 9.61713L32.3946 9.61915Z" fill="#444B54"/>
<path d="M35.9992 34.1672C35.8848 34.1671 35.7728 34.1336 35.6772 34.0708C35.5816 34.008 35.5065 33.9186 35.461 33.8136C35.4155 33.7086 35.4016 33.5927 35.4211 33.4799C35.4406 33.3672 35.4928 33.2627 35.5709 33.1791C36.4141 32.2797 37.1609 31.2946 37.7994 30.2399C39.8076 26.779 40.619 22.7527 40.1078 18.7842C39.5967 14.8156 37.7914 11.1263 34.9718 8.2873C34.9132 8.2337 34.8661 8.16876 34.8333 8.09643C34.8006 8.02411 34.7829 7.94589 34.7812 7.86652C34.7795 7.78714 34.7941 7.70826 34.8238 7.63463C34.8535 7.561 34.8978 7.49416 34.9541 7.43815C35.0104 7.38215 35.0774 7.33814 35.1512 7.30879C35.2249 7.27944 35.3039 7.26536 35.3833 7.26741C35.4627 7.26945 35.5407 7.28759 35.6129 7.32069C35.6851 7.3538 35.7498 7.4012 35.8031 7.46002C38.8052 10.4841 40.7266 14.4136 41.2697 18.64C41.8129 22.8664 40.9475 27.1541 38.8076 30.839C38.1257 31.9669 37.3275 33.0204 36.4263 33.9823C36.3715 34.0406 36.3054 34.0872 36.2319 34.119C36.1585 34.1508 36.0792 34.1672 35.9992 34.1672Z" fill="#444B54"/>
<g opacity="0.2">
<path d="M2.80638 39.8476C2.74474 39.8476 2.6837 39.8355 2.62674 39.8119C2.56979 39.7883 2.51793 39.7537 2.47434 39.7101C2.43075 39.6665 2.39621 39.6148 2.37262 39.5578C2.34903 39.5009 2.33691 39.4398 2.33691 39.3782V36.2228C2.33691 36.0983 2.38631 35.9789 2.47434 35.8909C2.56238 35.8029 2.68188 35.7534 2.80638 35.7534C2.93088 35.7534 3.05027 35.8029 3.1383 35.8909C3.22634 35.9789 3.27573 36.0983 3.27573 36.2228V39.3792C3.27547 39.5035 3.22594 39.6227 3.13793 39.7105C3.04993 39.7983 2.93071 39.8476 2.80638 39.8476Z" fill="#444B54"/>
<path d="M4.38449 38.2694H1.22814C1.10364 38.2694 0.984254 38.2199 0.896219 38.1319C0.808184 38.0439 0.758789 37.9245 0.758789 37.8C0.758789 37.6755 0.808184 37.5561 0.896219 37.4681C0.984254 37.38 1.10364 37.3306 1.22814 37.3306H4.38449C4.50899 37.3306 4.62837 37.38 4.7164 37.4681C4.80444 37.5561 4.85396 37.6755 4.85396 37.8C4.85396 37.9245 4.80444 38.0439 4.7164 38.1319C4.62837 38.2199 4.50899 38.2694 4.38449 38.2694Z" fill="#444B54"/>
</g>
<path opacity="0.2" d="M39.6922 4.57203C39.2896 4.57203 38.8961 4.45268 38.5614 4.22901C38.2266 4.00534 37.9657 3.68741 37.8116 3.31547C37.6576 2.94352 37.6172 2.53426 37.6958 2.1394C37.7743 1.74455 37.9682 1.38185 38.2529 1.09717C38.5375 0.812497 38.9003 0.618631 39.2951 0.54009C39.69 0.461548 40.0992 0.501859 40.4711 0.655923C40.8431 0.809988 41.161 1.07088 41.3847 1.40562C41.6083 1.74036 41.7278 2.13391 41.7278 2.5365C41.727 3.07612 41.5122 3.59342 41.1307 3.97498C40.7491 4.35654 40.2318 4.57124 39.6922 4.57203ZM39.6922 1.43884C39.4751 1.43884 39.2629 1.50321 39.0824 1.62382C38.9018 1.74444 38.7611 1.91588 38.678 2.11645C38.595 2.31703 38.5732 2.53773 38.6156 2.75066C38.6579 2.96359 38.7625 3.15916 38.916 3.31268C39.0695 3.46619 39.2652 3.57074 39.4781 3.61309C39.691 3.65545 39.9117 3.63371 40.1122 3.55063C40.3128 3.46755 40.4843 3.32686 40.6049 3.14635C40.7255 2.96584 40.7899 2.75361 40.7899 2.5365C40.7897 2.24546 40.6739 1.96644 40.4681 1.76064C40.2623 1.55484 39.9832 1.43911 39.6922 1.43884Z" fill="#444B54"/>
<path d="M23.7175 35.5H21.741C21.6941 35.5 21.6811 35.474 21.7019 35.4219L24.9988 26.25H20.6316C20.5899 26.25 20.5691 26.2292 20.5691 26.1875V24.4453C20.5691 24.3932 20.5899 24.3672 20.6316 24.3672H26.8269C26.8686 24.3672 26.8894 24.3932 26.8894 24.4453V26.2344L23.8191 35.4219C23.7983 35.474 23.7644 35.5 23.7175 35.5Z" fill="#1AC977"/>
</g>
<defs>
<clipPath id="clip0_45_5632">
<rect width="41.4555" height="40" fill="white" transform="translate(0.272217 0.5)"/>
</clipPath>
</defs>
</svg>
