<svg width="18" height="16" viewBox="0 0 18 16" fill="none" xmlns="http://www.w3.org/2000/svg">
<path d="M15.7663 1.82611C15.3753 1.40569 14.9111 1.07219 14.4002 0.844652C13.8893 0.617114 13.3417 0.5 12.7887 0.5C12.2357 0.5 11.6881 0.617114 11.1772 0.844652C10.6663 1.07219 10.2021 1.40569 9.81116 1.82611L8.9998 2.69821L8.18843 1.82611C7.39874 0.977297 6.32768 0.50044 5.21089 0.50044C4.09409 0.50044 3.02303 0.977297 2.23334 1.82611C1.44365 2.67492 1 3.82616 1 5.02656C1 6.22696 1.44365 7.37819 2.23334 8.227L3.0447 9.0991L8.9998 15.5L14.9549 9.0991L15.7663 8.227C16.1574 7.80679 16.4677 7.30785 16.6794 6.75871C16.891 6.20957 17 5.62097 17 5.02656C17 4.43214 16.891 3.84355 16.6794 3.2944C16.4677 2.74526 16.1574 2.24633 15.7663 1.82611Z" stroke="#C5C7CD" stroke-linecap="round" stroke-linejoin="round"/>
</svg>
