<svg id="_1ac977ff" data-name="#1ac977ff" xmlns="http://www.w3.org/2000/svg" width="43.401" height="41.932" viewBox="0 0 43.401 41.932">
  <path id="Path" d="M.072,8.126C-.644,3.5,4.086-.847,8.6.142a25.307,25.307,0,0,1,5.148,1.886c.887,3.882,1.3,7.87,2.178,11.762,1.632-.525,3.506-.941,5.058.053a4.876,4.876,0,0,1,2.282,6.122c-.731,1.7-2.33,2.746-3.7,3.878-1.675,1.356-3.259,2.822-4.915,4.2C13.125,20.57,12.062,13,10.6,5.514c-.641-1.819-3.231-1.2-3.6.511,1.623,8.29,2.932,16.642,4.431,24.956.138.907.546,2.034,1.575,2.211.845.2,1.518-.42,2.126-.893,3.027-2.555,6.12-5.024,9.138-7.583a8.678,8.678,0,0,0,2.738-8.925,8.822,8.822,0,0,0-8.132-6.241C18.249,6.4,17.684,3.246,17.267.07,24.54,2.744,31.842,5.351,39.115,8.026a7.371,7.371,0,0,1,3.568,9.861,11.992,11.992,0,0,1-3.018,3.276C32.672,27.031,25.6,32.81,18.68,38.76c-1.8,1.476-3.734,3.233-6.211,3.161a7.245,7.245,0,0,1-7.482-6.093Q2.468,21.989.072,8.126Z" transform="translate(0 0)" fill="#d5d6d8"/>
</svg>
