<svg width="24" height="20" viewBox="0 0 24 20" fill="none" xmlns="http://www.w3.org/2000/svg">
<path d="M20.8423 2.60999C20.3316 2.099 19.7251 1.69364 19.0577 1.41708C18.3902 1.14052 17.6748 0.998169 16.9523 0.998169C16.2298 0.998169 15.5144 1.14052 14.847 1.41708C14.1795 1.69364 13.5731 2.099 13.0623 2.60999L12.0023 3.66999L10.9423 2.60999C9.91062 1.5783 8.51135 0.998704 7.05232 0.998704C5.59328 0.998704 4.19401 1.5783 3.16232 2.60999C2.13062 3.64169 1.55103 5.04096 1.55103 6.49999C1.55103 7.95903 2.13062 9.3583 3.16232 10.39L4.22232 11.45L12.0023 19.23L19.7823 11.45L20.8423 10.39C21.3533 9.87924 21.7587 9.27281 22.0352 8.60535C22.3118 7.93789 22.4541 7.22248 22.4541 6.49999C22.4541 5.77751 22.3118 5.0621 22.0352 4.39464C21.7587 3.72718 21.3533 3.12075 20.8423 2.60999Z" stroke="#494c52" stroke-width="1.5" stroke-linecap="round" stroke-linejoin="round"/>
</svg>
